<svg width="151" height="31" viewBox="0 0 151 31" fill="none" xmlns="http://www.w3.org/2000/svg">
<path d="M31.9721 16.4428C33.1096 16.4423 34.2004 15.9902 35.0048 15.1858C35.8092 14.3814 36.2613 13.2906 36.2618 12.1531V10.7225H39.1229V12.1531C39.1383 13.0917 38.9611 14.0235 38.6021 14.8909C38.2432 15.7583 37.7103 16.5429 37.0362 17.1962C36.7966 17.4362 36.5417 17.6605 36.2733 17.8677C36.5393 18.073 36.794 18.2926 37.0362 18.5257C37.711 19.1843 38.2438 19.974 38.602 20.8463C38.9602 21.7185 39.1362 22.6547 39.1191 23.5975V25.0261H36.258V23.5975C36.259 22.4596 35.8081 21.3679 35.0044 20.5624C34.2007 19.7569 33.1099 19.3035 31.9721 19.302H27.688V25.0242H24.8269V5.01172H27.688V16.4428H31.9721Z" fill="white"/>
<path d="M40.5994 7.86892V5.00781H43.4605V7.86892H40.5994ZM43.4605 10.73V25.0203H40.5994V10.7262L43.4605 10.73Z" fill="white"/>
<path d="M49.0033 19.472C49.9243 20.3806 50.9397 21.1882 52.0323 21.881C53.1245 21.1906 54.1399 20.3856 55.0613 19.4796C55.4668 19.0875 55.7876 18.6164 56.0038 18.0955C56.22 17.5745 56.327 17.0147 56.3182 16.4507V10.7284H59.1794V16.4507C59.1934 17.3915 59.0145 18.3253 58.6536 19.1943C58.2928 20.0634 57.7576 20.8492 57.0812 21.5034C55.6081 22.9533 53.9004 24.1438 52.0304 25.0244C50.1608 24.1425 48.4537 22.9507 46.9815 21.4996C46.3051 20.8454 45.7699 20.0596 45.4091 19.1905C45.0482 18.3215 44.8693 17.3877 44.8833 16.4468V10.7246H47.7444V16.4468C47.7366 17.0103 47.8442 17.5694 48.0607 18.0897C48.2772 18.61 48.598 19.0804 49.0033 19.472Z" fill="white"/>
<path d="M72.081 23.5963C70.7905 24.5655 69.2106 25.0705 67.5972 25.0293C65.9839 24.9882 64.4317 24.4034 63.1924 23.3698C61.953 22.3361 61.099 20.9141 60.7689 19.3344C60.4388 17.7547 60.6518 16.1097 61.3736 14.6663C62.0953 13.2228 63.2834 12.0654 64.7453 11.3816C66.2071 10.6979 67.8571 10.5279 69.4276 10.8992C70.9982 11.2705 72.3973 12.1614 73.3982 13.4274C74.3991 14.6933 74.9431 16.2603 74.9421 17.8741V25.0193H72.081V23.5963ZM67.7931 13.5844C66.8 13.5835 65.8374 13.927 65.0693 14.5564C64.3011 15.1858 63.7751 16.0621 63.5807 17.036C63.3863 18.0098 63.5357 19.021 64.0033 19.897C64.471 20.7731 65.2279 21.4599 66.1452 21.8403C67.0625 22.2207 68.0834 22.2713 69.0338 21.9833C69.9842 21.6953 70.8053 21.0867 71.3572 20.2611C71.9091 19.4355 72.1576 18.4441 72.0604 17.4558C71.9631 16.4675 71.5262 15.5435 70.824 14.8413C70.4314 14.4359 69.96 14.1153 69.4387 13.8991C68.9174 13.6829 68.3574 13.5758 67.7931 13.5844Z" fill="white"/>
<path d="M79.2757 17.8756V25.0208H76.4146V17.8756C76.4151 15.9808 77.168 14.1637 78.5079 12.8238C79.8477 11.4839 81.6648 10.731 83.5597 10.7305V13.5916C82.4241 13.5936 81.3356 14.0456 80.5327 14.8486C79.7297 15.6516 79.2777 16.74 79.2757 17.8756Z" fill="white"/>
<path d="M97.2227 12.8196C98.3883 13.9888 99.1126 15.526 99.2722 17.1692C99.4317 18.8125 99.0166 20.4603 98.0977 21.8319C97.1787 23.2035 95.8126 24.2141 94.2322 24.6915C92.6517 25.169 90.9546 25.0838 89.4299 24.4504C87.9052 23.817 86.6473 22.6747 85.8703 21.218C85.0933 19.7612 84.8454 18.0801 85.1688 16.4611C85.4921 14.8421 86.3667 13.3852 87.6437 12.3387C88.9206 11.2921 90.5208 10.7206 92.1718 10.7215C93.1124 10.7074 94.0459 10.8864 94.9146 11.2472C95.7833 11.6081 96.5689 12.1433 97.2227 12.8196ZM92.1718 13.5826C91.1777 13.5809 90.2137 13.9241 89.4443 14.5537C88.6749 15.1833 88.1477 16.0603 87.9526 17.0351C87.7575 18.0099 87.9066 19.0222 88.3744 19.8994C88.8423 20.7767 89.5999 21.4644 90.5181 21.8455C91.4364 22.2265 92.4583 22.2773 93.4098 21.9891C94.3613 21.7009 95.1833 21.0916 95.7358 20.265C96.2882 19.4385 96.5369 18.4459 96.4393 17.4565C96.3418 16.4672 95.904 15.5423 95.2008 14.8396C94.8084 14.4346 94.3372 14.1142 93.8163 13.8984C93.2953 13.6825 92.7357 13.5757 92.1718 13.5845V13.5826Z" fill="white"/>
<path d="M103.647 25.0166H100.786V5.01172H103.647V25.0166Z" fill="white"/>
<path d="M116.55 23.5965C115.26 24.5647 113.681 25.069 112.069 25.0275C110.457 24.9861 108.906 24.4014 107.667 23.3683C106.429 22.3351 105.576 20.914 105.246 19.3352C104.916 17.7565 105.129 16.1126 105.85 14.67C106.572 13.2274 107.759 12.0707 109.22 11.3873C110.681 10.7039 112.329 10.5339 113.899 10.9047C115.469 11.2756 116.867 12.1656 117.868 13.4306C118.868 14.6956 119.412 16.2614 119.411 17.8743V25.0194H116.55V23.5965ZM112.263 13.5788C111.268 13.5771 110.304 13.9203 109.535 14.5499C108.766 15.1795 108.238 16.0565 108.043 17.0313C107.848 18.0061 107.997 19.0184 108.465 19.8957C108.933 20.7729 109.691 21.4606 110.609 21.8417C111.527 22.2227 112.549 22.2735 113.501 21.9853C114.452 21.6971 115.274 21.0877 115.826 20.2612C116.379 19.4347 116.628 18.4421 116.53 17.4527C116.432 16.4634 115.995 15.5385 115.291 14.8358C114.899 14.4316 114.427 14.1121 113.906 13.8969C113.385 13.6818 112.826 13.5754 112.263 13.5845V13.5788Z" fill="white"/>
<path d="M120.878 5.01172H123.739V12.1416C125.029 11.1734 126.608 10.6691 128.221 10.7106C129.833 10.752 131.384 11.3367 132.622 12.3698C133.861 13.403 134.714 14.8241 135.044 16.4029C135.374 17.9816 135.161 19.6255 134.439 21.0681C133.718 22.5106 132.531 23.6674 131.07 24.3508C129.609 25.0342 127.96 25.2042 126.391 24.8334C124.821 24.4625 123.423 23.5724 122.422 22.3075C121.422 21.0425 120.878 19.4767 120.878 17.8638V5.01172ZM124.994 14.8425C124.295 15.5434 123.86 16.465 123.764 17.4504C123.668 18.4358 123.917 19.4241 124.467 20.2468C125.018 21.0696 125.837 21.6759 126.785 21.9626C127.733 22.2493 128.75 22.1986 129.665 21.8191C130.579 21.4396 131.334 20.7548 131.8 19.8813C132.266 19.0079 132.415 17.9998 132.222 17.0289C132.028 16.0579 131.504 15.184 130.739 14.5562C129.973 13.9283 129.013 13.5853 128.023 13.5855C127.459 13.5773 126.9 13.6846 126.379 13.9008C125.858 14.1169 125.387 14.4374 124.994 14.8425Z" fill="white"/>
<path d="M140.927 10.7266H150.931V13.5877H140.927C140.548 13.5877 140.184 13.7384 139.915 14.0067C139.647 14.2749 139.496 14.6388 139.496 15.0182C139.496 15.3976 139.647 15.7615 139.915 16.0298C140.184 16.2981 140.548 16.4488 140.927 16.4488H146.649C147.787 16.4488 148.879 16.9009 149.684 17.7058C150.489 18.5106 150.941 19.6022 150.941 20.7405C150.941 21.8787 150.489 22.9703 149.684 23.7751C148.879 24.58 147.787 25.0321 146.649 25.0321H136.641V22.171H146.644C147.023 22.171 147.387 22.0203 147.655 21.752C147.923 21.4837 148.074 21.1199 148.074 20.7405C148.074 20.361 147.923 19.9972 147.655 19.7289C147.387 19.4606 147.023 19.3099 146.644 19.3099H140.921C139.783 19.3099 138.691 18.8577 137.887 18.0529C137.082 17.2481 136.63 16.1564 136.63 15.0182C136.63 13.88 137.082 12.7884 137.887 11.9836C138.691 11.1787 139.783 10.7266 140.921 10.7266H140.927Z" fill="white"/>
<path d="M5.68789 0L10.609 4.94591L0.604648 14.9159L10.6986 24.9794L5.64974 30.0264C4.06278 28.5005 2.40715 26.9326 0.793479 25.3151C0.205998 24.7219 0 23.9017 0 23.0644C0 17.7071 0 12.3492 0 6.99065C0 6.17237 0.190741 5.36172 0.762963 4.78568C2.37091 3.15104 4.05133 1.57933 5.68789 0Z" fill="#C51F2C"/>
<path d="M10.8208 14.9879L15.6332 10.166C16.6117 11.0663 17.7313 11.8827 18.5859 12.9318C19.6559 14.225 19.5052 16.1877 18.3818 17.4313C17.5597 18.3392 16.6422 19.1613 15.7972 19.9911L10.8208 14.9879Z" fill="#C51F2C"/>
</svg>
